<svg xmlns="http://www.w3.org/2000/svg" width="64" height="64" viewBox="0 0 64 64"><path fill="#d1683a" stroke="#20301f" stroke-linejoin="round" stroke-width="2.5" d="M32 24c14 0 16 18 8 30-4 4-12 4-16 0-8-12-6-30 8-30Z"/><path stroke="#20301f" stroke-opacity=".35" d="m16 26 10 26m-2-26 10 26m-2-26 10 26m-2-26 10 26m-2-26 10 26"/><g stroke="#20301f"><path fill="#d1683a" stroke-linejoin="round" stroke-width="2.5" d="M32 4c5 5 5 15 0 20-5-5-5-15 0-20Z"/><path stroke-opacity=".4" d="M32 8v12"/></g><g stroke="#20301f"><path fill="#d1683a" stroke-linejoin="round" stroke-width="2.5" d="M20.62 8.75c6.221 1.512 9.602 8.762 6.76 14.5-6.221-1.512-9.602-8.762-6.76-14.5Z"/><path stroke-opacity=".4" d="m22.31 12.375 3.38 7.25"/></g><g stroke="#20301f"><path fill="#d1683a" stroke-linejoin="round" stroke-width="2.5" d="M43.38 8.75c2.842 5.738-.539 12.988-6.76 14.5-2.842-5.738.539-12.988 6.76-14.5Z"/><path stroke-opacity=".4" d="m41.69 12.375-3.38 7.25"/></g></svg>